<svg xmlns="http://www.w3.org/2000/svg" viewBox="0 0 410 410" width="410" height="410">
  <rect width="410" height="410" fill="#ffffff" rx="16"/>
  <rect x="40" y="40" width="10" height="10" fill="#064e3b" />
<rect x="50" y="40" width="10" height="10" fill="#064e3b" />
<rect x="60" y="40" width="10" height="10" fill="#064e3b" />
<rect x="70" y="40" width="10" height="10" fill="#064e3b" />
<rect x="80" y="40" width="10" height="10" fill="#064e3b" />
<rect x="90" y="40" width="10" height="10" fill="#064e3b" />
<rect x="100" y="40" width="10" height="10" fill="#064e3b" />
<rect x="130" y="40" width="10" height="10" fill="#064e3b" />
<rect x="190" y="40" width="10" height="10" fill="#064e3b" />
<rect x="200" y="40" width="10" height="10" fill="#064e3b" />
<rect x="220" y="40" width="10" height="10" fill="#064e3b" />
<rect x="230" y="40" width="10" height="10" fill="#064e3b" />
<rect x="240" y="40" width="10" height="10" fill="#064e3b" />
<rect x="250" y="40" width="10" height="10" fill="#064e3b" />
<rect x="260" y="40" width="10" height="10" fill="#064e3b" />
<rect x="270" y="40" width="10" height="10" fill="#064e3b" />
<rect x="300" y="40" width="10" height="10" fill="#064e3b" />
<rect x="310" y="40" width="10" height="10" fill="#064e3b" />
<rect x="320" y="40" width="10" height="10" fill="#064e3b" />
<rect x="330" y="40" width="10" height="10" fill="#064e3b" />
<rect x="340" y="40" width="10" height="10" fill="#064e3b" />
<rect x="350" y="40" width="10" height="10" fill="#064e3b" />
<rect x="360" y="40" width="10" height="10" fill="#064e3b" />
<rect x="40" y="50" width="10" height="10" fill="#064e3b" />
<rect x="100" y="50" width="10" height="10" fill="#064e3b" />
<rect x="130" y="50" width="10" height="10" fill="#064e3b" />
<rect x="150" y="50" width="10" height="10" fill="#064e3b" />
<rect x="160" y="50" width="10" height="10" fill="#064e3b" />
<rect x="250" y="50" width="10" height="10" fill="#064e3b" />
<rect x="260" y="50" width="10" height="10" fill="#064e3b" />
<rect x="280" y="50" width="10" height="10" fill="#064e3b" />
<rect x="300" y="50" width="10" height="10" fill="#064e3b" />
<rect x="360" y="50" width="10" height="10" fill="#064e3b" />
<rect x="40" y="60" width="10" height="10" fill="#064e3b" />
<rect x="60" y="60" width="10" height="10" fill="#064e3b" />
<rect x="70" y="60" width="10" height="10" fill="#064e3b" />
<rect x="80" y="60" width="10" height="10" fill="#064e3b" />
<rect x="100" y="60" width="10" height="10" fill="#064e3b" />
<rect x="120" y="60" width="10" height="10" fill="#064e3b" />
<rect x="130" y="60" width="10" height="10" fill="#064e3b" />
<rect x="140" y="60" width="10" height="10" fill="#064e3b" />
<rect x="150" y="60" width="10" height="10" fill="#064e3b" />
<rect x="180" y="60" width="10" height="10" fill="#064e3b" />
<rect x="200" y="60" width="10" height="10" fill="#064e3b" />
<rect x="230" y="60" width="10" height="10" fill="#064e3b" />
<rect x="240" y="60" width="10" height="10" fill="#064e3b" />
<rect x="250" y="60" width="10" height="10" fill="#064e3b" />
<rect x="260" y="60" width="10" height="10" fill="#064e3b" />
<rect x="280" y="60" width="10" height="10" fill="#064e3b" />
<rect x="300" y="60" width="10" height="10" fill="#064e3b" />
<rect x="320" y="60" width="10" height="10" fill="#064e3b" />
<rect x="330" y="60" width="10" height="10" fill="#064e3b" />
<rect x="340" y="60" width="10" height="10" fill="#064e3b" />
<rect x="360" y="60" width="10" height="10" fill="#064e3b" />
<rect x="40" y="70" width="10" height="10" fill="#064e3b" />
<rect x="60" y="70" width="10" height="10" fill="#064e3b" />
<rect x="70" y="70" width="10" height="10" fill="#064e3b" />
<rect x="80" y="70" width="10" height="10" fill="#064e3b" />
<rect x="100" y="70" width="10" height="10" fill="#064e3b" />
<rect x="120" y="70" width="10" height="10" fill="#064e3b" />
<rect x="130" y="70" width="10" height="10" fill="#064e3b" />
<rect x="150" y="70" width="10" height="10" fill="#064e3b" />
<rect x="200" y="70" width="10" height="10" fill="#064e3b" />
<rect x="210" y="70" width="10" height="10" fill="#064e3b" />
<rect x="230" y="70" width="10" height="10" fill="#064e3b" />
<rect x="260" y="70" width="10" height="10" fill="#064e3b" />
<rect x="300" y="70" width="10" height="10" fill="#064e3b" />
<rect x="320" y="70" width="10" height="10" fill="#064e3b" />
<rect x="330" y="70" width="10" height="10" fill="#064e3b" />
<rect x="340" y="70" width="10" height="10" fill="#064e3b" />
<rect x="360" y="70" width="10" height="10" fill="#064e3b" />
<rect x="40" y="80" width="10" height="10" fill="#064e3b" />
<rect x="60" y="80" width="10" height="10" fill="#064e3b" />
<rect x="70" y="80" width="10" height="10" fill="#064e3b" />
<rect x="80" y="80" width="10" height="10" fill="#064e3b" />
<rect x="100" y="80" width="10" height="10" fill="#064e3b" />
<rect x="120" y="80" width="10" height="10" fill="#064e3b" />
<rect x="140" y="80" width="10" height="10" fill="#064e3b" />
<rect x="160" y="80" width="10" height="10" fill="#064e3b" />
<rect x="170" y="80" width="10" height="10" fill="#064e3b" />
<rect x="180" y="80" width="10" height="10" fill="#064e3b" />
<rect x="190" y="80" width="10" height="10" fill="#064e3b" />
<rect x="230" y="80" width="10" height="10" fill="#064e3b" />
<rect x="240" y="80" width="10" height="10" fill="#064e3b" />
<rect x="250" y="80" width="10" height="10" fill="#064e3b" />
<rect x="260" y="80" width="10" height="10" fill="#064e3b" />
<rect x="270" y="80" width="10" height="10" fill="#064e3b" />
<rect x="300" y="80" width="10" height="10" fill="#064e3b" />
<rect x="320" y="80" width="10" height="10" fill="#064e3b" />
<rect x="330" y="80" width="10" height="10" fill="#064e3b" />
<rect x="340" y="80" width="10" height="10" fill="#064e3b" />
<rect x="360" y="80" width="10" height="10" fill="#064e3b" />
<rect x="40" y="90" width="10" height="10" fill="#064e3b" />
<rect x="100" y="90" width="10" height="10" fill="#064e3b" />
<rect x="120" y="90" width="10" height="10" fill="#064e3b" />
<rect x="140" y="90" width="10" height="10" fill="#064e3b" />
<rect x="170" y="90" width="10" height="10" fill="#064e3b" />
<rect x="180" y="90" width="10" height="10" fill="#064e3b" />
<rect x="190" y="90" width="10" height="10" fill="#064e3b" />
<rect x="200" y="90" width="10" height="10" fill="#064e3b" />
<rect x="300" y="90" width="10" height="10" fill="#064e3b" />
<rect x="360" y="90" width="10" height="10" fill="#064e3b" />
<rect x="40" y="100" width="10" height="10" fill="#064e3b" />
<rect x="50" y="100" width="10" height="10" fill="#064e3b" />
<rect x="60" y="100" width="10" height="10" fill="#064e3b" />
<rect x="70" y="100" width="10" height="10" fill="#064e3b" />
<rect x="80" y="100" width="10" height="10" fill="#064e3b" />
<rect x="90" y="100" width="10" height="10" fill="#064e3b" />
<rect x="100" y="100" width="10" height="10" fill="#064e3b" />
<rect x="120" y="100" width="10" height="10" fill="#064e3b" />
<rect x="140" y="100" width="10" height="10" fill="#064e3b" />
<rect x="160" y="100" width="10" height="10" fill="#064e3b" />
<rect x="180" y="100" width="10" height="10" fill="#064e3b" />
<rect x="200" y="100" width="10" height="10" fill="#064e3b" />
<rect x="220" y="100" width="10" height="10" fill="#064e3b" />
<rect x="240" y="100" width="10" height="10" fill="#064e3b" />
<rect x="260" y="100" width="10" height="10" fill="#064e3b" />
<rect x="280" y="100" width="10" height="10" fill="#064e3b" />
<rect x="300" y="100" width="10" height="10" fill="#064e3b" />
<rect x="310" y="100" width="10" height="10" fill="#064e3b" />
<rect x="320" y="100" width="10" height="10" fill="#064e3b" />
<rect x="330" y="100" width="10" height="10" fill="#064e3b" />
<rect x="340" y="100" width="10" height="10" fill="#064e3b" />
<rect x="350" y="100" width="10" height="10" fill="#064e3b" />
<rect x="360" y="100" width="10" height="10" fill="#064e3b" />
<rect x="120" y="110" width="10" height="10" fill="#064e3b" />
<rect x="160" y="110" width="10" height="10" fill="#064e3b" />
<rect x="170" y="110" width="10" height="10" fill="#064e3b" />
<rect x="190" y="110" width="10" height="10" fill="#064e3b" />
<rect x="220" y="110" width="10" height="10" fill="#064e3b" />
<rect x="230" y="110" width="10" height="10" fill="#064e3b" />
<rect x="240" y="110" width="10" height="10" fill="#064e3b" />
<rect x="250" y="110" width="10" height="10" fill="#064e3b" />
<rect x="280" y="110" width="10" height="10" fill="#064e3b" />
<rect x="40" y="120" width="10" height="10" fill="#064e3b" />
<rect x="60" y="120" width="10" height="10" fill="#064e3b" />
<rect x="70" y="120" width="10" height="10" fill="#064e3b" />
<rect x="80" y="120" width="10" height="10" fill="#064e3b" />
<rect x="90" y="120" width="10" height="10" fill="#064e3b" />
<rect x="100" y="120" width="10" height="10" fill="#064e3b" />
<rect x="130" y="120" width="10" height="10" fill="#064e3b" />
<rect x="140" y="120" width="10" height="10" fill="#064e3b" />
<rect x="160" y="120" width="10" height="10" fill="#064e3b" />
<rect x="180" y="120" width="10" height="10" fill="#064e3b" />
<rect x="190" y="120" width="10" height="10" fill="#064e3b" />
<rect x="210" y="120" width="10" height="10" fill="#064e3b" />
<rect x="230" y="120" width="10" height="10" fill="#064e3b" />
<rect x="260" y="120" width="10" height="10" fill="#064e3b" />
<rect x="280" y="120" width="10" height="10" fill="#064e3b" />
<rect x="300" y="120" width="10" height="10" fill="#064e3b" />
<rect x="310" y="120" width="10" height="10" fill="#064e3b" />
<rect x="320" y="120" width="10" height="10" fill="#064e3b" />
<rect x="330" y="120" width="10" height="10" fill="#064e3b" />
<rect x="340" y="120" width="10" height="10" fill="#064e3b" />
<rect x="40" y="130" width="10" height="10" fill="#064e3b" />
<rect x="60" y="130" width="10" height="10" fill="#064e3b" />
<rect x="90" y="130" width="10" height="10" fill="#064e3b" />
<rect x="120" y="130" width="10" height="10" fill="#064e3b" />
<rect x="130" y="130" width="10" height="10" fill="#064e3b" />
<rect x="190" y="130" width="10" height="10" fill="#064e3b" />
<rect x="200" y="130" width="10" height="10" fill="#064e3b" />
<rect x="210" y="130" width="10" height="10" fill="#064e3b" />
<rect x="220" y="130" width="10" height="10" fill="#064e3b" />
<rect x="230" y="130" width="10" height="10" fill="#064e3b" />
<rect x="250" y="130" width="10" height="10" fill="#064e3b" />
<rect x="270" y="130" width="10" height="10" fill="#064e3b" />
<rect x="300" y="130" width="10" height="10" fill="#064e3b" />
<rect x="340" y="130" width="10" height="10" fill="#064e3b" />
<rect x="350" y="130" width="10" height="10" fill="#064e3b" />
<rect x="360" y="130" width="10" height="10" fill="#064e3b" />
<rect x="40" y="140" width="10" height="10" fill="#064e3b" />
<rect x="60" y="140" width="10" height="10" fill="#064e3b" />
<rect x="70" y="140" width="10" height="10" fill="#064e3b" />
<rect x="80" y="140" width="10" height="10" fill="#064e3b" />
<rect x="100" y="140" width="10" height="10" fill="#064e3b" />
<rect x="130" y="140" width="10" height="10" fill="#064e3b" />
<rect x="150" y="140" width="10" height="10" fill="#064e3b" />
<rect x="160" y="140" width="10" height="10" fill="#064e3b" />
<rect x="240" y="140" width="10" height="10" fill="#064e3b" />
<rect x="260" y="140" width="10" height="10" fill="#064e3b" />
<rect x="280" y="140" width="10" height="10" fill="#064e3b" />
<rect x="300" y="140" width="10" height="10" fill="#064e3b" />
<rect x="330" y="140" width="10" height="10" fill="#064e3b" />
<rect x="350" y="140" width="10" height="10" fill="#064e3b" />
<rect x="40" y="150" width="10" height="10" fill="#064e3b" />
<rect x="70" y="150" width="10" height="10" fill="#064e3b" />
<rect x="80" y="150" width="10" height="10" fill="#064e3b" />
<rect x="130" y="150" width="10" height="10" fill="#064e3b" />
<rect x="140" y="150" width="10" height="10" fill="#064e3b" />
<rect x="150" y="150" width="10" height="10" fill="#064e3b" />
<rect x="180" y="150" width="10" height="10" fill="#064e3b" />
<rect x="200" y="150" width="10" height="10" fill="#064e3b" />
<rect x="220" y="150" width="10" height="10" fill="#064e3b" />
<rect x="230" y="150" width="10" height="10" fill="#064e3b" />
<rect x="240" y="150" width="10" height="10" fill="#064e3b" />
<rect x="250" y="150" width="10" height="10" fill="#064e3b" />
<rect x="260" y="150" width="10" height="10" fill="#064e3b" />
<rect x="290" y="150" width="10" height="10" fill="#064e3b" />
<rect x="300" y="150" width="10" height="10" fill="#064e3b" />
<rect x="340" y="150" width="10" height="10" fill="#064e3b" />
<rect x="100" y="160" width="10" height="10" fill="#064e3b" />
<rect x="130" y="160" width="10" height="10" fill="#064e3b" />
<rect x="150" y="160" width="10" height="10" fill="#064e3b" />
<rect x="200" y="160" width="10" height="10" fill="#064e3b" />
<rect x="210" y="160" width="10" height="10" fill="#064e3b" />
<rect x="240" y="160" width="10" height="10" fill="#064e3b" />
<rect x="260" y="160" width="10" height="10" fill="#064e3b" />
<rect x="280" y="160" width="10" height="10" fill="#064e3b" />
<rect x="290" y="160" width="10" height="10" fill="#064e3b" />
<rect x="310" y="160" width="10" height="10" fill="#064e3b" />
<rect x="320" y="160" width="10" height="10" fill="#064e3b" />
<rect x="330" y="160" width="10" height="10" fill="#064e3b" />
<rect x="50" y="170" width="10" height="10" fill="#064e3b" />
<rect x="80" y="170" width="10" height="10" fill="#064e3b" />
<rect x="90" y="170" width="10" height="10" fill="#064e3b" />
<rect x="120" y="170" width="10" height="10" fill="#064e3b" />
<rect x="140" y="170" width="10" height="10" fill="#064e3b" />
<rect x="160" y="170" width="10" height="10" fill="#064e3b" />
<rect x="170" y="170" width="10" height="10" fill="#064e3b" />
<rect x="180" y="170" width="10" height="10" fill="#064e3b" />
<rect x="190" y="170" width="10" height="10" fill="#064e3b" />
<rect x="210" y="170" width="10" height="10" fill="#064e3b" />
<rect x="220" y="170" width="10" height="10" fill="#064e3b" />
<rect x="230" y="170" width="10" height="10" fill="#064e3b" />
<rect x="240" y="170" width="10" height="10" fill="#064e3b" />
<rect x="270" y="170" width="10" height="10" fill="#064e3b" />
<rect x="300" y="170" width="10" height="10" fill="#064e3b" />
<rect x="350" y="170" width="10" height="10" fill="#064e3b" />
<rect x="360" y="170" width="10" height="10" fill="#064e3b" />
<rect x="50" y="180" width="10" height="10" fill="#064e3b" />
<rect x="90" y="180" width="10" height="10" fill="#064e3b" />
<rect x="100" y="180" width="10" height="10" fill="#064e3b" />
<rect x="110" y="180" width="10" height="10" fill="#064e3b" />
<rect x="120" y="180" width="10" height="10" fill="#064e3b" />
<rect x="130" y="180" width="10" height="10" fill="#064e3b" />
<rect x="170" y="180" width="10" height="10" fill="#064e3b" />
<rect x="180" y="180" width="10" height="10" fill="#064e3b" />
<rect x="190" y="180" width="10" height="10" fill="#064e3b" />
<rect x="200" y="180" width="10" height="10" fill="#064e3b" />
<rect x="220" y="180" width="10" height="10" fill="#064e3b" />
<rect x="240" y="180" width="10" height="10" fill="#064e3b" />
<rect x="260" y="180" width="10" height="10" fill="#064e3b" />
<rect x="290" y="180" width="10" height="10" fill="#064e3b" />
<rect x="300" y="180" width="10" height="10" fill="#064e3b" />
<rect x="310" y="180" width="10" height="10" fill="#064e3b" />
<rect x="350" y="180" width="10" height="10" fill="#064e3b" />
<rect x="50" y="190" width="10" height="10" fill="#064e3b" />
<rect x="60" y="190" width="10" height="10" fill="#064e3b" />
<rect x="80" y="190" width="10" height="10" fill="#064e3b" />
<rect x="110" y="190" width="10" height="10" fill="#064e3b" />
<rect x="120" y="190" width="10" height="10" fill="#064e3b" />
<rect x="140" y="190" width="10" height="10" fill="#064e3b" />
<rect x="160" y="190" width="10" height="10" fill="#064e3b" />
<rect x="170" y="190" width="10" height="10" fill="#064e3b" />
<rect x="190" y="190" width="10" height="10" fill="#064e3b" />
<rect x="240" y="190" width="10" height="10" fill="#064e3b" />
<rect x="250" y="190" width="10" height="10" fill="#064e3b" />
<rect x="260" y="190" width="10" height="10" fill="#064e3b" />
<rect x="280" y="190" width="10" height="10" fill="#064e3b" />
<rect x="290" y="190" width="10" height="10" fill="#064e3b" />
<rect x="310" y="190" width="10" height="10" fill="#064e3b" />
<rect x="320" y="190" width="10" height="10" fill="#064e3b" />
<rect x="340" y="190" width="10" height="10" fill="#064e3b" />
<rect x="60" y="200" width="10" height="10" fill="#064e3b" />
<rect x="70" y="200" width="10" height="10" fill="#064e3b" />
<rect x="90" y="200" width="10" height="10" fill="#064e3b" />
<rect x="100" y="200" width="10" height="10" fill="#064e3b" />
<rect x="110" y="200" width="10" height="10" fill="#064e3b" />
<rect x="140" y="200" width="10" height="10" fill="#064e3b" />
<rect x="160" y="200" width="10" height="10" fill="#064e3b" />
<rect x="180" y="200" width="10" height="10" fill="#064e3b" />
<rect x="190" y="200" width="10" height="10" fill="#064e3b" />
<rect x="210" y="200" width="10" height="10" fill="#064e3b" />
<rect x="260" y="200" width="10" height="10" fill="#064e3b" />
<rect x="280" y="200" width="10" height="10" fill="#064e3b" />
<rect x="290" y="200" width="10" height="10" fill="#064e3b" />
<rect x="310" y="200" width="10" height="10" fill="#064e3b" />
<rect x="320" y="200" width="10" height="10" fill="#064e3b" />
<rect x="350" y="200" width="10" height="10" fill="#064e3b" />
<rect x="60" y="210" width="10" height="10" fill="#064e3b" />
<rect x="110" y="210" width="10" height="10" fill="#064e3b" />
<rect x="130" y="210" width="10" height="10" fill="#064e3b" />
<rect x="140" y="210" width="10" height="10" fill="#064e3b" />
<rect x="190" y="210" width="10" height="10" fill="#064e3b" />
<rect x="200" y="210" width="10" height="10" fill="#064e3b" />
<rect x="220" y="210" width="10" height="10" fill="#064e3b" />
<rect x="230" y="210" width="10" height="10" fill="#064e3b" />
<rect x="240" y="210" width="10" height="10" fill="#064e3b" />
<rect x="270" y="210" width="10" height="10" fill="#064e3b" />
<rect x="300" y="210" width="10" height="10" fill="#064e3b" />
<rect x="330" y="210" width="10" height="10" fill="#064e3b" />
<rect x="350" y="210" width="10" height="10" fill="#064e3b" />
<rect x="360" y="210" width="10" height="10" fill="#064e3b" />
<rect x="50" y="220" width="10" height="10" fill="#064e3b" />
<rect x="90" y="220" width="10" height="10" fill="#064e3b" />
<rect x="100" y="220" width="10" height="10" fill="#064e3b" />
<rect x="130" y="220" width="10" height="10" fill="#064e3b" />
<rect x="150" y="220" width="10" height="10" fill="#064e3b" />
<rect x="160" y="220" width="10" height="10" fill="#064e3b" />
<rect x="210" y="220" width="10" height="10" fill="#064e3b" />
<rect x="240" y="220" width="10" height="10" fill="#064e3b" />
<rect x="260" y="220" width="10" height="10" fill="#064e3b" />
<rect x="280" y="220" width="10" height="10" fill="#064e3b" />
<rect x="290" y="220" width="10" height="10" fill="#064e3b" />
<rect x="320" y="220" width="10" height="10" fill="#064e3b" />
<rect x="330" y="220" width="10" height="10" fill="#064e3b" />
<rect x="350" y="220" width="10" height="10" fill="#064e3b" />
<rect x="50" y="230" width="10" height="10" fill="#064e3b" />
<rect x="60" y="230" width="10" height="10" fill="#064e3b" />
<rect x="80" y="230" width="10" height="10" fill="#064e3b" />
<rect x="90" y="230" width="10" height="10" fill="#064e3b" />
<rect x="130" y="230" width="10" height="10" fill="#064e3b" />
<rect x="150" y="230" width="10" height="10" fill="#064e3b" />
<rect x="180" y="230" width="10" height="10" fill="#064e3b" />
<rect x="200" y="230" width="10" height="10" fill="#064e3b" />
<rect x="220" y="230" width="10" height="10" fill="#064e3b" />
<rect x="250" y="230" width="10" height="10" fill="#064e3b" />
<rect x="260" y="230" width="10" height="10" fill="#064e3b" />
<rect x="290" y="230" width="10" height="10" fill="#064e3b" />
<rect x="310" y="230" width="10" height="10" fill="#064e3b" />
<rect x="340" y="230" width="10" height="10" fill="#064e3b" />
<rect x="100" y="240" width="10" height="10" fill="#064e3b" />
<rect x="120" y="240" width="10" height="10" fill="#064e3b" />
<rect x="130" y="240" width="10" height="10" fill="#064e3b" />
<rect x="150" y="240" width="10" height="10" fill="#064e3b" />
<rect x="210" y="240" width="10" height="10" fill="#064e3b" />
<rect x="230" y="240" width="10" height="10" fill="#064e3b" />
<rect x="260" y="240" width="10" height="10" fill="#064e3b" />
<rect x="270" y="240" width="10" height="10" fill="#064e3b" />
<rect x="280" y="240" width="10" height="10" fill="#064e3b" />
<rect x="290" y="240" width="10" height="10" fill="#064e3b" />
<rect x="320" y="240" width="10" height="10" fill="#064e3b" />
<rect x="350" y="240" width="10" height="10" fill="#064e3b" />
<rect x="40" y="250" width="10" height="10" fill="#064e3b" />
<rect x="60" y="250" width="10" height="10" fill="#064e3b" />
<rect x="80" y="250" width="10" height="10" fill="#064e3b" />
<rect x="110" y="250" width="10" height="10" fill="#064e3b" />
<rect x="130" y="250" width="10" height="10" fill="#064e3b" />
<rect x="160" y="250" width="10" height="10" fill="#064e3b" />
<rect x="170" y="250" width="10" height="10" fill="#064e3b" />
<rect x="180" y="250" width="10" height="10" fill="#064e3b" />
<rect x="190" y="250" width="10" height="10" fill="#064e3b" />
<rect x="210" y="250" width="10" height="10" fill="#064e3b" />
<rect x="230" y="250" width="10" height="10" fill="#064e3b" />
<rect x="240" y="250" width="10" height="10" fill="#064e3b" />
<rect x="250" y="250" width="10" height="10" fill="#064e3b" />
<rect x="270" y="250" width="10" height="10" fill="#064e3b" />
<rect x="300" y="250" width="10" height="10" fill="#064e3b" />
<rect x="330" y="250" width="10" height="10" fill="#064e3b" />
<rect x="350" y="250" width="10" height="10" fill="#064e3b" />
<rect x="360" y="250" width="10" height="10" fill="#064e3b" />
<rect x="40" y="260" width="10" height="10" fill="#064e3b" />
<rect x="70" y="260" width="10" height="10" fill="#064e3b" />
<rect x="90" y="260" width="10" height="10" fill="#064e3b" />
<rect x="100" y="260" width="10" height="10" fill="#064e3b" />
<rect x="170" y="260" width="10" height="10" fill="#064e3b" />
<rect x="180" y="260" width="10" height="10" fill="#064e3b" />
<rect x="190" y="260" width="10" height="10" fill="#064e3b" />
<rect x="200" y="260" width="10" height="10" fill="#064e3b" />
<rect x="220" y="260" width="10" height="10" fill="#064e3b" />
<rect x="260" y="260" width="10" height="10" fill="#064e3b" />
<rect x="290" y="260" width="10" height="10" fill="#064e3b" />
<rect x="330" y="260" width="10" height="10" fill="#064e3b" />
<rect x="350" y="260" width="10" height="10" fill="#064e3b" />
<rect x="40" y="270" width="10" height="10" fill="#064e3b" />
<rect x="60" y="270" width="10" height="10" fill="#064e3b" />
<rect x="110" y="270" width="10" height="10" fill="#064e3b" />
<rect x="120" y="270" width="10" height="10" fill="#064e3b" />
<rect x="130" y="270" width="10" height="10" fill="#064e3b" />
<rect x="140" y="270" width="10" height="10" fill="#064e3b" />
<rect x="160" y="270" width="10" height="10" fill="#064e3b" />
<rect x="170" y="270" width="10" height="10" fill="#064e3b" />
<rect x="200" y="270" width="10" height="10" fill="#064e3b" />
<rect x="230" y="270" width="10" height="10" fill="#064e3b" />
<rect x="240" y="270" width="10" height="10" fill="#064e3b" />
<rect x="250" y="270" width="10" height="10" fill="#064e3b" />
<rect x="260" y="270" width="10" height="10" fill="#064e3b" />
<rect x="280" y="270" width="10" height="10" fill="#064e3b" />
<rect x="310" y="270" width="10" height="10" fill="#064e3b" />
<rect x="320" y="270" width="10" height="10" fill="#064e3b" />
<rect x="330" y="270" width="10" height="10" fill="#064e3b" />
<rect x="340" y="270" width="10" height="10" fill="#064e3b" />
<rect x="40" y="280" width="10" height="10" fill="#064e3b" />
<rect x="60" y="280" width="10" height="10" fill="#064e3b" />
<rect x="70" y="280" width="10" height="10" fill="#064e3b" />
<rect x="90" y="280" width="10" height="10" fill="#064e3b" />
<rect x="100" y="280" width="10" height="10" fill="#064e3b" />
<rect x="110" y="280" width="10" height="10" fill="#064e3b" />
<rect x="140" y="280" width="10" height="10" fill="#064e3b" />
<rect x="160" y="280" width="10" height="10" fill="#064e3b" />
<rect x="180" y="280" width="10" height="10" fill="#064e3b" />
<rect x="210" y="280" width="10" height="10" fill="#064e3b" />
<rect x="220" y="280" width="10" height="10" fill="#064e3b" />
<rect x="240" y="280" width="10" height="10" fill="#064e3b" />
<rect x="260" y="280" width="10" height="10" fill="#064e3b" />
<rect x="280" y="280" width="10" height="10" fill="#064e3b" />
<rect x="290" y="280" width="10" height="10" fill="#064e3b" />
<rect x="300" y="280" width="10" height="10" fill="#064e3b" />
<rect x="310" y="280" width="10" height="10" fill="#064e3b" />
<rect x="320" y="280" width="10" height="10" fill="#064e3b" />
<rect x="360" y="280" width="10" height="10" fill="#064e3b" />
<rect x="120" y="290" width="10" height="10" fill="#064e3b" />
<rect x="130" y="290" width="10" height="10" fill="#064e3b" />
<rect x="140" y="290" width="10" height="10" fill="#064e3b" />
<rect x="210" y="290" width="10" height="10" fill="#064e3b" />
<rect x="220" y="290" width="10" height="10" fill="#064e3b" />
<rect x="230" y="290" width="10" height="10" fill="#064e3b" />
<rect x="240" y="290" width="10" height="10" fill="#064e3b" />
<rect x="280" y="290" width="10" height="10" fill="#064e3b" />
<rect x="320" y="290" width="10" height="10" fill="#064e3b" />
<rect x="340" y="290" width="10" height="10" fill="#064e3b" />
<rect x="360" y="290" width="10" height="10" fill="#064e3b" />
<rect x="40" y="300" width="10" height="10" fill="#064e3b" />
<rect x="50" y="300" width="10" height="10" fill="#064e3b" />
<rect x="60" y="300" width="10" height="10" fill="#064e3b" />
<rect x="70" y="300" width="10" height="10" fill="#064e3b" />
<rect x="80" y="300" width="10" height="10" fill="#064e3b" />
<rect x="90" y="300" width="10" height="10" fill="#064e3b" />
<rect x="100" y="300" width="10" height="10" fill="#064e3b" />
<rect x="150" y="300" width="10" height="10" fill="#064e3b" />
<rect x="160" y="300" width="10" height="10" fill="#064e3b" />
<rect x="190" y="300" width="10" height="10" fill="#064e3b" />
<rect x="210" y="300" width="10" height="10" fill="#064e3b" />
<rect x="240" y="300" width="10" height="10" fill="#064e3b" />
<rect x="250" y="300" width="10" height="10" fill="#064e3b" />
<rect x="260" y="300" width="10" height="10" fill="#064e3b" />
<rect x="270" y="300" width="10" height="10" fill="#064e3b" />
<rect x="280" y="300" width="10" height="10" fill="#064e3b" />
<rect x="300" y="300" width="10" height="10" fill="#064e3b" />
<rect x="320" y="300" width="10" height="10" fill="#064e3b" />
<rect x="330" y="300" width="10" height="10" fill="#064e3b" />
<rect x="340" y="300" width="10" height="10" fill="#064e3b" />
<rect x="350" y="300" width="10" height="10" fill="#064e3b" />
<rect x="40" y="310" width="10" height="10" fill="#064e3b" />
<rect x="100" y="310" width="10" height="10" fill="#064e3b" />
<rect x="120" y="310" width="10" height="10" fill="#064e3b" />
<rect x="130" y="310" width="10" height="10" fill="#064e3b" />
<rect x="140" y="310" width="10" height="10" fill="#064e3b" />
<rect x="150" y="310" width="10" height="10" fill="#064e3b" />
<rect x="180" y="310" width="10" height="10" fill="#064e3b" />
<rect x="190" y="310" width="10" height="10" fill="#064e3b" />
<rect x="220" y="310" width="10" height="10" fill="#064e3b" />
<rect x="240" y="310" width="10" height="10" fill="#064e3b" />
<rect x="250" y="310" width="10" height="10" fill="#064e3b" />
<rect x="270" y="310" width="10" height="10" fill="#064e3b" />
<rect x="280" y="310" width="10" height="10" fill="#064e3b" />
<rect x="320" y="310" width="10" height="10" fill="#064e3b" />
<rect x="330" y="310" width="10" height="10" fill="#064e3b" />
<rect x="340" y="310" width="10" height="10" fill="#064e3b" />
<rect x="360" y="310" width="10" height="10" fill="#064e3b" />
<rect x="40" y="320" width="10" height="10" fill="#064e3b" />
<rect x="60" y="320" width="10" height="10" fill="#064e3b" />
<rect x="70" y="320" width="10" height="10" fill="#064e3b" />
<rect x="80" y="320" width="10" height="10" fill="#064e3b" />
<rect x="100" y="320" width="10" height="10" fill="#064e3b" />
<rect x="120" y="320" width="10" height="10" fill="#064e3b" />
<rect x="140" y="320" width="10" height="10" fill="#064e3b" />
<rect x="150" y="320" width="10" height="10" fill="#064e3b" />
<rect x="190" y="320" width="10" height="10" fill="#064e3b" />
<rect x="200" y="320" width="10" height="10" fill="#064e3b" />
<rect x="210" y="320" width="10" height="10" fill="#064e3b" />
<rect x="260" y="320" width="10" height="10" fill="#064e3b" />
<rect x="280" y="320" width="10" height="10" fill="#064e3b" />
<rect x="290" y="320" width="10" height="10" fill="#064e3b" />
<rect x="300" y="320" width="10" height="10" fill="#064e3b" />
<rect x="310" y="320" width="10" height="10" fill="#064e3b" />
<rect x="320" y="320" width="10" height="10" fill="#064e3b" />
<rect x="350" y="320" width="10" height="10" fill="#064e3b" />
<rect x="40" y="330" width="10" height="10" fill="#064e3b" />
<rect x="60" y="330" width="10" height="10" fill="#064e3b" />
<rect x="70" y="330" width="10" height="10" fill="#064e3b" />
<rect x="80" y="330" width="10" height="10" fill="#064e3b" />
<rect x="100" y="330" width="10" height="10" fill="#064e3b" />
<rect x="120" y="330" width="10" height="10" fill="#064e3b" />
<rect x="140" y="330" width="10" height="10" fill="#064e3b" />
<rect x="160" y="330" width="10" height="10" fill="#064e3b" />
<rect x="170" y="330" width="10" height="10" fill="#064e3b" />
<rect x="180" y="330" width="10" height="10" fill="#064e3b" />
<rect x="200" y="330" width="10" height="10" fill="#064e3b" />
<rect x="220" y="330" width="10" height="10" fill="#064e3b" />
<rect x="230" y="330" width="10" height="10" fill="#064e3b" />
<rect x="240" y="330" width="10" height="10" fill="#064e3b" />
<rect x="250" y="330" width="10" height="10" fill="#064e3b" />
<rect x="270" y="330" width="10" height="10" fill="#064e3b" />
<rect x="290" y="330" width="10" height="10" fill="#064e3b" />
<rect x="310" y="330" width="10" height="10" fill="#064e3b" />
<rect x="320" y="330" width="10" height="10" fill="#064e3b" />
<rect x="340" y="330" width="10" height="10" fill="#064e3b" />
<rect x="350" y="330" width="10" height="10" fill="#064e3b" />
<rect x="360" y="330" width="10" height="10" fill="#064e3b" />
<rect x="40" y="340" width="10" height="10" fill="#064e3b" />
<rect x="60" y="340" width="10" height="10" fill="#064e3b" />
<rect x="70" y="340" width="10" height="10" fill="#064e3b" />
<rect x="80" y="340" width="10" height="10" fill="#064e3b" />
<rect x="100" y="340" width="10" height="10" fill="#064e3b" />
<rect x="120" y="340" width="10" height="10" fill="#064e3b" />
<rect x="130" y="340" width="10" height="10" fill="#064e3b" />
<rect x="140" y="340" width="10" height="10" fill="#064e3b" />
<rect x="170" y="340" width="10" height="10" fill="#064e3b" />
<rect x="180" y="340" width="10" height="10" fill="#064e3b" />
<rect x="190" y="340" width="10" height="10" fill="#064e3b" />
<rect x="220" y="340" width="10" height="10" fill="#064e3b" />
<rect x="250" y="340" width="10" height="10" fill="#064e3b" />
<rect x="260" y="340" width="10" height="10" fill="#064e3b" />
<rect x="280" y="340" width="10" height="10" fill="#064e3b" />
<rect x="300" y="340" width="10" height="10" fill="#064e3b" />
<rect x="40" y="350" width="10" height="10" fill="#064e3b" />
<rect x="100" y="350" width="10" height="10" fill="#064e3b" />
<rect x="130" y="350" width="10" height="10" fill="#064e3b" />
<rect x="140" y="350" width="10" height="10" fill="#064e3b" />
<rect x="160" y="350" width="10" height="10" fill="#064e3b" />
<rect x="170" y="350" width="10" height="10" fill="#064e3b" />
<rect x="190" y="350" width="10" height="10" fill="#064e3b" />
<rect x="230" y="350" width="10" height="10" fill="#064e3b" />
<rect x="250" y="350" width="10" height="10" fill="#064e3b" />
<rect x="260" y="350" width="10" height="10" fill="#064e3b" />
<rect x="300" y="350" width="10" height="10" fill="#064e3b" />
<rect x="310" y="350" width="10" height="10" fill="#064e3b" />
<rect x="330" y="350" width="10" height="10" fill="#064e3b" />
<rect x="340" y="350" width="10" height="10" fill="#064e3b" />
<rect x="40" y="360" width="10" height="10" fill="#064e3b" />
<rect x="50" y="360" width="10" height="10" fill="#064e3b" />
<rect x="60" y="360" width="10" height="10" fill="#064e3b" />
<rect x="70" y="360" width="10" height="10" fill="#064e3b" />
<rect x="80" y="360" width="10" height="10" fill="#064e3b" />
<rect x="90" y="360" width="10" height="10" fill="#064e3b" />
<rect x="100" y="360" width="10" height="10" fill="#064e3b" />
<rect x="120" y="360" width="10" height="10" fill="#064e3b" />
<rect x="130" y="360" width="10" height="10" fill="#064e3b" />
<rect x="140" y="360" width="10" height="10" fill="#064e3b" />
<rect x="160" y="360" width="10" height="10" fill="#064e3b" />
<rect x="180" y="360" width="10" height="10" fill="#064e3b" />
<rect x="190" y="360" width="10" height="10" fill="#064e3b" />
<rect x="200" y="360" width="10" height="10" fill="#064e3b" />
<rect x="210" y="360" width="10" height="10" fill="#064e3b" />
<rect x="240" y="360" width="10" height="10" fill="#064e3b" />
<rect x="260" y="360" width="10" height="10" fill="#064e3b" />
<rect x="270" y="360" width="10" height="10" fill="#064e3b" />
<rect x="280" y="360" width="10" height="10" fill="#064e3b" />
<rect x="290" y="360" width="10" height="10" fill="#064e3b" />
<rect x="310" y="360" width="10" height="10" fill="#064e3b" />
<rect x="320" y="360" width="10" height="10" fill="#064e3b" />
<rect x="350" y="360" width="10" height="10" fill="#064e3b" />

</svg>