<svg xmlns="http://www.w3.org/2000/svg" viewBox="0 0 390 390" width="390" height="390">
  <rect width="390" height="390" fill="#ffffff" rx="16"/>
  <rect x="30" y="30" width="10" height="10" fill="#064e3b" />
<rect x="40" y="30" width="10" height="10" fill="#064e3b" />
<rect x="50" y="30" width="10" height="10" fill="#064e3b" />
<rect x="60" y="30" width="10" height="10" fill="#064e3b" />
<rect x="70" y="30" width="10" height="10" fill="#064e3b" />
<rect x="80" y="30" width="10" height="10" fill="#064e3b" />
<rect x="90" y="30" width="10" height="10" fill="#064e3b" />
<rect x="120" y="30" width="10" height="10" fill="#064e3b" />
<rect x="130" y="30" width="10" height="10" fill="#064e3b" />
<rect x="140" y="30" width="10" height="10" fill="#064e3b" />
<rect x="160" y="30" width="10" height="10" fill="#064e3b" />
<rect x="190" y="30" width="10" height="10" fill="#064e3b" />
<rect x="200" y="30" width="10" height="10" fill="#064e3b" />
<rect x="220" y="30" width="10" height="10" fill="#064e3b" />
<rect x="250" y="30" width="10" height="10" fill="#064e3b" />
<rect x="260" y="30" width="10" height="10" fill="#064e3b" />
<rect x="270" y="30" width="10" height="10" fill="#064e3b" />
<rect x="290" y="30" width="10" height="10" fill="#064e3b" />
<rect x="300" y="30" width="10" height="10" fill="#064e3b" />
<rect x="310" y="30" width="10" height="10" fill="#064e3b" />
<rect x="320" y="30" width="10" height="10" fill="#064e3b" />
<rect x="330" y="30" width="10" height="10" fill="#064e3b" />
<rect x="340" y="30" width="10" height="10" fill="#064e3b" />
<rect x="350" y="30" width="10" height="10" fill="#064e3b" />
<rect x="30" y="40" width="10" height="10" fill="#064e3b" />
<rect x="90" y="40" width="10" height="10" fill="#064e3b" />
<rect x="120" y="40" width="10" height="10" fill="#064e3b" />
<rect x="140" y="40" width="10" height="10" fill="#064e3b" />
<rect x="160" y="40" width="10" height="10" fill="#064e3b" />
<rect x="170" y="40" width="10" height="10" fill="#064e3b" />
<rect x="180" y="40" width="10" height="10" fill="#064e3b" />
<rect x="200" y="40" width="10" height="10" fill="#064e3b" />
<rect x="250" y="40" width="10" height="10" fill="#064e3b" />
<rect x="270" y="40" width="10" height="10" fill="#064e3b" />
<rect x="290" y="40" width="10" height="10" fill="#064e3b" />
<rect x="350" y="40" width="10" height="10" fill="#064e3b" />
<rect x="30" y="50" width="10" height="10" fill="#064e3b" />
<rect x="50" y="50" width="10" height="10" fill="#064e3b" />
<rect x="60" y="50" width="10" height="10" fill="#064e3b" />
<rect x="70" y="50" width="10" height="10" fill="#064e3b" />
<rect x="90" y="50" width="10" height="10" fill="#064e3b" />
<rect x="110" y="50" width="10" height="10" fill="#064e3b" />
<rect x="120" y="50" width="10" height="10" fill="#064e3b" />
<rect x="130" y="50" width="10" height="10" fill="#064e3b" />
<rect x="160" y="50" width="10" height="10" fill="#064e3b" />
<rect x="180" y="50" width="10" height="10" fill="#064e3b" />
<rect x="190" y="50" width="10" height="10" fill="#064e3b" />
<rect x="200" y="50" width="10" height="10" fill="#064e3b" />
<rect x="210" y="50" width="10" height="10" fill="#064e3b" />
<rect x="220" y="50" width="10" height="10" fill="#064e3b" />
<rect x="260" y="50" width="10" height="10" fill="#064e3b" />
<rect x="290" y="50" width="10" height="10" fill="#064e3b" />
<rect x="310" y="50" width="10" height="10" fill="#064e3b" />
<rect x="320" y="50" width="10" height="10" fill="#064e3b" />
<rect x="330" y="50" width="10" height="10" fill="#064e3b" />
<rect x="350" y="50" width="10" height="10" fill="#064e3b" />
<rect x="30" y="60" width="10" height="10" fill="#064e3b" />
<rect x="50" y="60" width="10" height="10" fill="#064e3b" />
<rect x="60" y="60" width="10" height="10" fill="#064e3b" />
<rect x="70" y="60" width="10" height="10" fill="#064e3b" />
<rect x="90" y="60" width="10" height="10" fill="#064e3b" />
<rect x="110" y="60" width="10" height="10" fill="#064e3b" />
<rect x="120" y="60" width="10" height="10" fill="#064e3b" />
<rect x="150" y="60" width="10" height="10" fill="#064e3b" />
<rect x="170" y="60" width="10" height="10" fill="#064e3b" />
<rect x="180" y="60" width="10" height="10" fill="#064e3b" />
<rect x="190" y="60" width="10" height="10" fill="#064e3b" />
<rect x="220" y="60" width="10" height="10" fill="#064e3b" />
<rect x="230" y="60" width="10" height="10" fill="#064e3b" />
<rect x="240" y="60" width="10" height="10" fill="#064e3b" />
<rect x="250" y="60" width="10" height="10" fill="#064e3b" />
<rect x="290" y="60" width="10" height="10" fill="#064e3b" />
<rect x="310" y="60" width="10" height="10" fill="#064e3b" />
<rect x="320" y="60" width="10" height="10" fill="#064e3b" />
<rect x="330" y="60" width="10" height="10" fill="#064e3b" />
<rect x="350" y="60" width="10" height="10" fill="#064e3b" />
<rect x="30" y="70" width="10" height="10" fill="#064e3b" />
<rect x="50" y="70" width="10" height="10" fill="#064e3b" />
<rect x="60" y="70" width="10" height="10" fill="#064e3b" />
<rect x="70" y="70" width="10" height="10" fill="#064e3b" />
<rect x="90" y="70" width="10" height="10" fill="#064e3b" />
<rect x="110" y="70" width="10" height="10" fill="#064e3b" />
<rect x="140" y="70" width="10" height="10" fill="#064e3b" />
<rect x="180" y="70" width="10" height="10" fill="#064e3b" />
<rect x="200" y="70" width="10" height="10" fill="#064e3b" />
<rect x="210" y="70" width="10" height="10" fill="#064e3b" />
<rect x="270" y="70" width="10" height="10" fill="#064e3b" />
<rect x="290" y="70" width="10" height="10" fill="#064e3b" />
<rect x="310" y="70" width="10" height="10" fill="#064e3b" />
<rect x="320" y="70" width="10" height="10" fill="#064e3b" />
<rect x="330" y="70" width="10" height="10" fill="#064e3b" />
<rect x="350" y="70" width="10" height="10" fill="#064e3b" />
<rect x="30" y="80" width="10" height="10" fill="#064e3b" />
<rect x="90" y="80" width="10" height="10" fill="#064e3b" />
<rect x="110" y="80" width="10" height="10" fill="#064e3b" />
<rect x="130" y="80" width="10" height="10" fill="#064e3b" />
<rect x="140" y="80" width="10" height="10" fill="#064e3b" />
<rect x="170" y="80" width="10" height="10" fill="#064e3b" />
<rect x="180" y="80" width="10" height="10" fill="#064e3b" />
<rect x="190" y="80" width="10" height="10" fill="#064e3b" />
<rect x="210" y="80" width="10" height="10" fill="#064e3b" />
<rect x="230" y="80" width="10" height="10" fill="#064e3b" />
<rect x="240" y="80" width="10" height="10" fill="#064e3b" />
<rect x="290" y="80" width="10" height="10" fill="#064e3b" />
<rect x="350" y="80" width="10" height="10" fill="#064e3b" />
<rect x="30" y="90" width="10" height="10" fill="#064e3b" />
<rect x="40" y="90" width="10" height="10" fill="#064e3b" />
<rect x="50" y="90" width="10" height="10" fill="#064e3b" />
<rect x="60" y="90" width="10" height="10" fill="#064e3b" />
<rect x="70" y="90" width="10" height="10" fill="#064e3b" />
<rect x="80" y="90" width="10" height="10" fill="#064e3b" />
<rect x="90" y="90" width="10" height="10" fill="#064e3b" />
<rect x="110" y="90" width="10" height="10" fill="#064e3b" />
<rect x="130" y="90" width="10" height="10" fill="#064e3b" />
<rect x="150" y="90" width="10" height="10" fill="#064e3b" />
<rect x="170" y="90" width="10" height="10" fill="#064e3b" />
<rect x="190" y="90" width="10" height="10" fill="#064e3b" />
<rect x="210" y="90" width="10" height="10" fill="#064e3b" />
<rect x="230" y="90" width="10" height="10" fill="#064e3b" />
<rect x="250" y="90" width="10" height="10" fill="#064e3b" />
<rect x="270" y="90" width="10" height="10" fill="#064e3b" />
<rect x="290" y="90" width="10" height="10" fill="#064e3b" />
<rect x="300" y="90" width="10" height="10" fill="#064e3b" />
<rect x="310" y="90" width="10" height="10" fill="#064e3b" />
<rect x="320" y="90" width="10" height="10" fill="#064e3b" />
<rect x="330" y="90" width="10" height="10" fill="#064e3b" />
<rect x="340" y="90" width="10" height="10" fill="#064e3b" />
<rect x="350" y="90" width="10" height="10" fill="#064e3b" />
<rect x="110" y="100" width="10" height="10" fill="#064e3b" />
<rect x="130" y="100" width="10" height="10" fill="#064e3b" />
<rect x="140" y="100" width="10" height="10" fill="#064e3b" />
<rect x="170" y="100" width="10" height="10" fill="#064e3b" />
<rect x="180" y="100" width="10" height="10" fill="#064e3b" />
<rect x="210" y="100" width="10" height="10" fill="#064e3b" />
<rect x="240" y="100" width="10" height="10" fill="#064e3b" />
<rect x="270" y="100" width="10" height="10" fill="#064e3b" />
<rect x="30" y="110" width="10" height="10" fill="#064e3b" />
<rect x="50" y="110" width="10" height="10" fill="#064e3b" />
<rect x="60" y="110" width="10" height="10" fill="#064e3b" />
<rect x="70" y="110" width="10" height="10" fill="#064e3b" />
<rect x="80" y="110" width="10" height="10" fill="#064e3b" />
<rect x="90" y="110" width="10" height="10" fill="#064e3b" />
<rect x="140" y="110" width="10" height="10" fill="#064e3b" />
<rect x="160" y="110" width="10" height="10" fill="#064e3b" />
<rect x="170" y="110" width="10" height="10" fill="#064e3b" />
<rect x="180" y="110" width="10" height="10" fill="#064e3b" />
<rect x="200" y="110" width="10" height="10" fill="#064e3b" />
<rect x="210" y="110" width="10" height="10" fill="#064e3b" />
<rect x="230" y="110" width="10" height="10" fill="#064e3b" />
<rect x="290" y="110" width="10" height="10" fill="#064e3b" />
<rect x="300" y="110" width="10" height="10" fill="#064e3b" />
<rect x="310" y="110" width="10" height="10" fill="#064e3b" />
<rect x="320" y="110" width="10" height="10" fill="#064e3b" />
<rect x="330" y="110" width="10" height="10" fill="#064e3b" />
<rect x="50" y="120" width="10" height="10" fill="#064e3b" />
<rect x="80" y="120" width="10" height="10" fill="#064e3b" />
<rect x="100" y="120" width="10" height="10" fill="#064e3b" />
<rect x="120" y="120" width="10" height="10" fill="#064e3b" />
<rect x="170" y="120" width="10" height="10" fill="#064e3b" />
<rect x="190" y="120" width="10" height="10" fill="#064e3b" />
<rect x="220" y="120" width="10" height="10" fill="#064e3b" />
<rect x="240" y="120" width="10" height="10" fill="#064e3b" />
<rect x="260" y="120" width="10" height="10" fill="#064e3b" />
<rect x="270" y="120" width="10" height="10" fill="#064e3b" />
<rect x="280" y="120" width="10" height="10" fill="#064e3b" />
<rect x="290" y="120" width="10" height="10" fill="#064e3b" />
<rect x="300" y="120" width="10" height="10" fill="#064e3b" />
<rect x="320" y="120" width="10" height="10" fill="#064e3b" />
<rect x="330" y="120" width="10" height="10" fill="#064e3b" />
<rect x="340" y="120" width="10" height="10" fill="#064e3b" />
<rect x="350" y="120" width="10" height="10" fill="#064e3b" />
<rect x="30" y="130" width="10" height="10" fill="#064e3b" />
<rect x="40" y="130" width="10" height="10" fill="#064e3b" />
<rect x="50" y="130" width="10" height="10" fill="#064e3b" />
<rect x="60" y="130" width="10" height="10" fill="#064e3b" />
<rect x="70" y="130" width="10" height="10" fill="#064e3b" />
<rect x="90" y="130" width="10" height="10" fill="#064e3b" />
<rect x="100" y="130" width="10" height="10" fill="#064e3b" />
<rect x="120" y="130" width="10" height="10" fill="#064e3b" />
<rect x="140" y="130" width="10" height="10" fill="#064e3b" />
<rect x="150" y="130" width="10" height="10" fill="#064e3b" />
<rect x="180" y="130" width="10" height="10" fill="#064e3b" />
<rect x="210" y="130" width="10" height="10" fill="#064e3b" />
<rect x="230" y="130" width="10" height="10" fill="#064e3b" />
<rect x="240" y="130" width="10" height="10" fill="#064e3b" />
<rect x="280" y="130" width="10" height="10" fill="#064e3b" />
<rect x="290" y="130" width="10" height="10" fill="#064e3b" />
<rect x="310" y="130" width="10" height="10" fill="#064e3b" />
<rect x="330" y="130" width="10" height="10" fill="#064e3b" />
<rect x="340" y="130" width="10" height="10" fill="#064e3b" />
<rect x="30" y="140" width="10" height="10" fill="#064e3b" />
<rect x="60" y="140" width="10" height="10" fill="#064e3b" />
<rect x="70" y="140" width="10" height="10" fill="#064e3b" />
<rect x="100" y="140" width="10" height="10" fill="#064e3b" />
<rect x="130" y="140" width="10" height="10" fill="#064e3b" />
<rect x="170" y="140" width="10" height="10" fill="#064e3b" />
<rect x="190" y="140" width="10" height="10" fill="#064e3b" />
<rect x="230" y="140" width="10" height="10" fill="#064e3b" />
<rect x="240" y="140" width="10" height="10" fill="#064e3b" />
<rect x="250" y="140" width="10" height="10" fill="#064e3b" />
<rect x="270" y="140" width="10" height="10" fill="#064e3b" />
<rect x="290" y="140" width="10" height="10" fill="#064e3b" />
<rect x="310" y="140" width="10" height="10" fill="#064e3b" />
<rect x="320" y="140" width="10" height="10" fill="#064e3b" />
<rect x="330" y="140" width="10" height="10" fill="#064e3b" />
<rect x="30" y="150" width="10" height="10" fill="#064e3b" />
<rect x="90" y="150" width="10" height="10" fill="#064e3b" />
<rect x="130" y="150" width="10" height="10" fill="#064e3b" />
<rect x="140" y="150" width="10" height="10" fill="#064e3b" />
<rect x="150" y="150" width="10" height="10" fill="#064e3b" />
<rect x="210" y="150" width="10" height="10" fill="#064e3b" />
<rect x="240" y="150" width="10" height="10" fill="#064e3b" />
<rect x="270" y="150" width="10" height="10" fill="#064e3b" />
<rect x="280" y="150" width="10" height="10" fill="#064e3b" />
<rect x="290" y="150" width="10" height="10" fill="#064e3b" />
<rect x="320" y="150" width="10" height="10" fill="#064e3b" />
<rect x="350" y="150" width="10" height="10" fill="#064e3b" />
<rect x="30" y="160" width="10" height="10" fill="#064e3b" />
<rect x="50" y="160" width="10" height="10" fill="#064e3b" />
<rect x="60" y="160" width="10" height="10" fill="#064e3b" />
<rect x="70" y="160" width="10" height="10" fill="#064e3b" />
<rect x="120" y="160" width="10" height="10" fill="#064e3b" />
<rect x="150" y="160" width="10" height="10" fill="#064e3b" />
<rect x="160" y="160" width="10" height="10" fill="#064e3b" />
<rect x="170" y="160" width="10" height="10" fill="#064e3b" />
<rect x="180" y="160" width="10" height="10" fill="#064e3b" />
<rect x="190" y="160" width="10" height="10" fill="#064e3b" />
<rect x="230" y="160" width="10" height="10" fill="#064e3b" />
<rect x="250" y="160" width="10" height="10" fill="#064e3b" />
<rect x="300" y="160" width="10" height="10" fill="#064e3b" />
<rect x="320" y="160" width="10" height="10" fill="#064e3b" />
<rect x="330" y="160" width="10" height="10" fill="#064e3b" />
<rect x="340" y="160" width="10" height="10" fill="#064e3b" />
<rect x="350" y="160" width="10" height="10" fill="#064e3b" />
<rect x="50" y="170" width="10" height="10" fill="#064e3b" />
<rect x="70" y="170" width="10" height="10" fill="#064e3b" />
<rect x="80" y="170" width="10" height="10" fill="#064e3b" />
<rect x="90" y="170" width="10" height="10" fill="#064e3b" />
<rect x="100" y="170" width="10" height="10" fill="#064e3b" />
<rect x="120" y="170" width="10" height="10" fill="#064e3b" />
<rect x="130" y="170" width="10" height="10" fill="#064e3b" />
<rect x="140" y="170" width="10" height="10" fill="#064e3b" />
<rect x="150" y="170" width="10" height="10" fill="#064e3b" />
<rect x="210" y="170" width="10" height="10" fill="#064e3b" />
<rect x="220" y="170" width="10" height="10" fill="#064e3b" />
<rect x="250" y="170" width="10" height="10" fill="#064e3b" />
<rect x="260" y="170" width="10" height="10" fill="#064e3b" />
<rect x="270" y="170" width="10" height="10" fill="#064e3b" />
<rect x="330" y="170" width="10" height="10" fill="#064e3b" />
<rect x="340" y="170" width="10" height="10" fill="#064e3b" />
<rect x="60" y="180" width="10" height="10" fill="#064e3b" />
<rect x="150" y="180" width="10" height="10" fill="#064e3b" />
<rect x="160" y="180" width="10" height="10" fill="#064e3b" />
<rect x="170" y="180" width="10" height="10" fill="#064e3b" />
<rect x="190" y="180" width="10" height="10" fill="#064e3b" />
<rect x="210" y="180" width="10" height="10" fill="#064e3b" />
<rect x="220" y="180" width="10" height="10" fill="#064e3b" />
<rect x="230" y="180" width="10" height="10" fill="#064e3b" />
<rect x="240" y="180" width="10" height="10" fill="#064e3b" />
<rect x="260" y="180" width="10" height="10" fill="#064e3b" />
<rect x="280" y="180" width="10" height="10" fill="#064e3b" />
<rect x="300" y="180" width="10" height="10" fill="#064e3b" />
<rect x="320" y="180" width="10" height="10" fill="#064e3b" />
<rect x="330" y="180" width="10" height="10" fill="#064e3b" />
<rect x="60" y="190" width="10" height="10" fill="#064e3b" />
<rect x="70" y="190" width="10" height="10" fill="#064e3b" />
<rect x="90" y="190" width="10" height="10" fill="#064e3b" />
<rect x="110" y="190" width="10" height="10" fill="#064e3b" />
<rect x="130" y="190" width="10" height="10" fill="#064e3b" />
<rect x="140" y="190" width="10" height="10" fill="#064e3b" />
<rect x="150" y="190" width="10" height="10" fill="#064e3b" />
<rect x="170" y="190" width="10" height="10" fill="#064e3b" />
<rect x="200" y="190" width="10" height="10" fill="#064e3b" />
<rect x="210" y="190" width="10" height="10" fill="#064e3b" />
<rect x="220" y="190" width="10" height="10" fill="#064e3b" />
<rect x="230" y="190" width="10" height="10" fill="#064e3b" />
<rect x="260" y="190" width="10" height="10" fill="#064e3b" />
<rect x="300" y="190" width="10" height="10" fill="#064e3b" />
<rect x="310" y="190" width="10" height="10" fill="#064e3b" />
<rect x="350" y="190" width="10" height="10" fill="#064e3b" />
<rect x="40" y="200" width="10" height="10" fill="#064e3b" />
<rect x="70" y="200" width="10" height="10" fill="#064e3b" />
<rect x="80" y="200" width="10" height="10" fill="#064e3b" />
<rect x="120" y="200" width="10" height="10" fill="#064e3b" />
<rect x="140" y="200" width="10" height="10" fill="#064e3b" />
<rect x="150" y="200" width="10" height="10" fill="#064e3b" />
<rect x="190" y="200" width="10" height="10" fill="#064e3b" />
<rect x="200" y="200" width="10" height="10" fill="#064e3b" />
<rect x="220" y="200" width="10" height="10" fill="#064e3b" />
<rect x="250" y="200" width="10" height="10" fill="#064e3b" />
<rect x="260" y="200" width="10" height="10" fill="#064e3b" />
<rect x="270" y="200" width="10" height="10" fill="#064e3b" />
<rect x="280" y="200" width="10" height="10" fill="#064e3b" />
<rect x="290" y="200" width="10" height="10" fill="#064e3b" />
<rect x="300" y="200" width="10" height="10" fill="#064e3b" />
<rect x="320" y="200" width="10" height="10" fill="#064e3b" />
<rect x="330" y="200" width="10" height="10" fill="#064e3b" />
<rect x="350" y="200" width="10" height="10" fill="#064e3b" />
<rect x="30" y="210" width="10" height="10" fill="#064e3b" />
<rect x="60" y="210" width="10" height="10" fill="#064e3b" />
<rect x="80" y="210" width="10" height="10" fill="#064e3b" />
<rect x="90" y="210" width="10" height="10" fill="#064e3b" />
<rect x="100" y="210" width="10" height="10" fill="#064e3b" />
<rect x="120" y="210" width="10" height="10" fill="#064e3b" />
<rect x="130" y="210" width="10" height="10" fill="#064e3b" />
<rect x="160" y="210" width="10" height="10" fill="#064e3b" />
<rect x="180" y="210" width="10" height="10" fill="#064e3b" />
<rect x="190" y="210" width="10" height="10" fill="#064e3b" />
<rect x="200" y="210" width="10" height="10" fill="#064e3b" />
<rect x="230" y="210" width="10" height="10" fill="#064e3b" />
<rect x="250" y="210" width="10" height="10" fill="#064e3b" />
<rect x="270" y="210" width="10" height="10" fill="#064e3b" />
<rect x="310" y="210" width="10" height="10" fill="#064e3b" />
<rect x="330" y="210" width="10" height="10" fill="#064e3b" />
<rect x="340" y="210" width="10" height="10" fill="#064e3b" />
<rect x="40" y="220" width="10" height="10" fill="#064e3b" />
<rect x="100" y="220" width="10" height="10" fill="#064e3b" />
<rect x="120" y="220" width="10" height="10" fill="#064e3b" />
<rect x="130" y="220" width="10" height="10" fill="#064e3b" />
<rect x="140" y="220" width="10" height="10" fill="#064e3b" />
<rect x="160" y="220" width="10" height="10" fill="#064e3b" />
<rect x="180" y="220" width="10" height="10" fill="#064e3b" />
<rect x="200" y="220" width="10" height="10" fill="#064e3b" />
<rect x="210" y="220" width="10" height="10" fill="#064e3b" />
<rect x="260" y="220" width="10" height="10" fill="#064e3b" />
<rect x="280" y="220" width="10" height="10" fill="#064e3b" />
<rect x="310" y="220" width="10" height="10" fill="#064e3b" />
<rect x="320" y="220" width="10" height="10" fill="#064e3b" />
<rect x="330" y="220" width="10" height="10" fill="#064e3b" />
<rect x="350" y="220" width="10" height="10" fill="#064e3b" />
<rect x="30" y="230" width="10" height="10" fill="#064e3b" />
<rect x="90" y="230" width="10" height="10" fill="#064e3b" />
<rect x="100" y="230" width="10" height="10" fill="#064e3b" />
<rect x="130" y="230" width="10" height="10" fill="#064e3b" />
<rect x="140" y="230" width="10" height="10" fill="#064e3b" />
<rect x="150" y="230" width="10" height="10" fill="#064e3b" />
<rect x="160" y="230" width="10" height="10" fill="#064e3b" />
<rect x="190" y="230" width="10" height="10" fill="#064e3b" />
<rect x="230" y="230" width="10" height="10" fill="#064e3b" />
<rect x="240" y="230" width="10" height="10" fill="#064e3b" />
<rect x="250" y="230" width="10" height="10" fill="#064e3b" />
<rect x="260" y="230" width="10" height="10" fill="#064e3b" />
<rect x="300" y="230" width="10" height="10" fill="#064e3b" />
<rect x="320" y="230" width="10" height="10" fill="#064e3b" />
<rect x="340" y="230" width="10" height="10" fill="#064e3b" />
<rect x="350" y="230" width="10" height="10" fill="#064e3b" />
<rect x="30" y="240" width="10" height="10" fill="#064e3b" />
<rect x="50" y="240" width="10" height="10" fill="#064e3b" />
<rect x="70" y="240" width="10" height="10" fill="#064e3b" />
<rect x="150" y="240" width="10" height="10" fill="#064e3b" />
<rect x="160" y="240" width="10" height="10" fill="#064e3b" />
<rect x="180" y="240" width="10" height="10" fill="#064e3b" />
<rect x="200" y="240" width="10" height="10" fill="#064e3b" />
<rect x="210" y="240" width="10" height="10" fill="#064e3b" />
<rect x="240" y="240" width="10" height="10" fill="#064e3b" />
<rect x="270" y="240" width="10" height="10" fill="#064e3b" />
<rect x="280" y="240" width="10" height="10" fill="#064e3b" />
<rect x="310" y="240" width="10" height="10" fill="#064e3b" />
<rect x="320" y="240" width="10" height="10" fill="#064e3b" />
<rect x="350" y="240" width="10" height="10" fill="#064e3b" />
<rect x="30" y="250" width="10" height="10" fill="#064e3b" />
<rect x="60" y="250" width="10" height="10" fill="#064e3b" />
<rect x="70" y="250" width="10" height="10" fill="#064e3b" />
<rect x="90" y="250" width="10" height="10" fill="#064e3b" />
<rect x="100" y="250" width="10" height="10" fill="#064e3b" />
<rect x="120" y="250" width="10" height="10" fill="#064e3b" />
<rect x="160" y="250" width="10" height="10" fill="#064e3b" />
<rect x="170" y="250" width="10" height="10" fill="#064e3b" />
<rect x="180" y="250" width="10" height="10" fill="#064e3b" />
<rect x="190" y="250" width="10" height="10" fill="#064e3b" />
<rect x="210" y="250" width="10" height="10" fill="#064e3b" />
<rect x="230" y="250" width="10" height="10" fill="#064e3b" />
<rect x="240" y="250" width="10" height="10" fill="#064e3b" />
<rect x="290" y="250" width="10" height="10" fill="#064e3b" />
<rect x="300" y="250" width="10" height="10" fill="#064e3b" />
<rect x="310" y="250" width="10" height="10" fill="#064e3b" />
<rect x="320" y="250" width="10" height="10" fill="#064e3b" />
<rect x="330" y="250" width="10" height="10" fill="#064e3b" />
<rect x="340" y="250" width="10" height="10" fill="#064e3b" />
<rect x="30" y="260" width="10" height="10" fill="#064e3b" />
<rect x="60" y="260" width="10" height="10" fill="#064e3b" />
<rect x="70" y="260" width="10" height="10" fill="#064e3b" />
<rect x="100" y="260" width="10" height="10" fill="#064e3b" />
<rect x="120" y="260" width="10" height="10" fill="#064e3b" />
<rect x="130" y="260" width="10" height="10" fill="#064e3b" />
<rect x="140" y="260" width="10" height="10" fill="#064e3b" />
<rect x="160" y="260" width="10" height="10" fill="#064e3b" />
<rect x="170" y="260" width="10" height="10" fill="#064e3b" />
<rect x="180" y="260" width="10" height="10" fill="#064e3b" />
<rect x="210" y="260" width="10" height="10" fill="#064e3b" />
<rect x="240" y="260" width="10" height="10" fill="#064e3b" />
<rect x="270" y="260" width="10" height="10" fill="#064e3b" />
<rect x="280" y="260" width="10" height="10" fill="#064e3b" />
<rect x="310" y="260" width="10" height="10" fill="#064e3b" />
<rect x="320" y="260" width="10" height="10" fill="#064e3b" />
<rect x="330" y="260" width="10" height="10" fill="#064e3b" />
<rect x="30" y="270" width="10" height="10" fill="#064e3b" />
<rect x="50" y="270" width="10" height="10" fill="#064e3b" />
<rect x="60" y="270" width="10" height="10" fill="#064e3b" />
<rect x="70" y="270" width="10" height="10" fill="#064e3b" />
<rect x="80" y="270" width="10" height="10" fill="#064e3b" />
<rect x="90" y="270" width="10" height="10" fill="#064e3b" />
<rect x="100" y="270" width="10" height="10" fill="#064e3b" />
<rect x="160" y="270" width="10" height="10" fill="#064e3b" />
<rect x="170" y="270" width="10" height="10" fill="#064e3b" />
<rect x="180" y="270" width="10" height="10" fill="#064e3b" />
<rect x="200" y="270" width="10" height="10" fill="#064e3b" />
<rect x="210" y="270" width="10" height="10" fill="#064e3b" />
<rect x="230" y="270" width="10" height="10" fill="#064e3b" />
<rect x="270" y="270" width="10" height="10" fill="#064e3b" />
<rect x="280" y="270" width="10" height="10" fill="#064e3b" />
<rect x="290" y="270" width="10" height="10" fill="#064e3b" />
<rect x="300" y="270" width="10" height="10" fill="#064e3b" />
<rect x="310" y="270" width="10" height="10" fill="#064e3b" />
<rect x="340" y="270" width="10" height="10" fill="#064e3b" />
<rect x="110" y="280" width="10" height="10" fill="#064e3b" />
<rect x="150" y="280" width="10" height="10" fill="#064e3b" />
<rect x="160" y="280" width="10" height="10" fill="#064e3b" />
<rect x="170" y="280" width="10" height="10" fill="#064e3b" />
<rect x="190" y="280" width="10" height="10" fill="#064e3b" />
<rect x="220" y="280" width="10" height="10" fill="#064e3b" />
<rect x="240" y="280" width="10" height="10" fill="#064e3b" />
<rect x="270" y="280" width="10" height="10" fill="#064e3b" />
<rect x="310" y="280" width="10" height="10" fill="#064e3b" />
<rect x="330" y="280" width="10" height="10" fill="#064e3b" />
<rect x="350" y="280" width="10" height="10" fill="#064e3b" />
<rect x="30" y="290" width="10" height="10" fill="#064e3b" />
<rect x="40" y="290" width="10" height="10" fill="#064e3b" />
<rect x="50" y="290" width="10" height="10" fill="#064e3b" />
<rect x="60" y="290" width="10" height="10" fill="#064e3b" />
<rect x="70" y="290" width="10" height="10" fill="#064e3b" />
<rect x="80" y="290" width="10" height="10" fill="#064e3b" />
<rect x="90" y="290" width="10" height="10" fill="#064e3b" />
<rect x="120" y="290" width="10" height="10" fill="#064e3b" />
<rect x="160" y="290" width="10" height="10" fill="#064e3b" />
<rect x="180" y="290" width="10" height="10" fill="#064e3b" />
<rect x="190" y="290" width="10" height="10" fill="#064e3b" />
<rect x="210" y="290" width="10" height="10" fill="#064e3b" />
<rect x="240" y="290" width="10" height="10" fill="#064e3b" />
<rect x="260" y="290" width="10" height="10" fill="#064e3b" />
<rect x="270" y="290" width="10" height="10" fill="#064e3b" />
<rect x="290" y="290" width="10" height="10" fill="#064e3b" />
<rect x="310" y="290" width="10" height="10" fill="#064e3b" />
<rect x="330" y="290" width="10" height="10" fill="#064e3b" />
<rect x="30" y="300" width="10" height="10" fill="#064e3b" />
<rect x="90" y="300" width="10" height="10" fill="#064e3b" />
<rect x="110" y="300" width="10" height="10" fill="#064e3b" />
<rect x="120" y="300" width="10" height="10" fill="#064e3b" />
<rect x="150" y="300" width="10" height="10" fill="#064e3b" />
<rect x="160" y="300" width="10" height="10" fill="#064e3b" />
<rect x="170" y="300" width="10" height="10" fill="#064e3b" />
<rect x="190" y="300" width="10" height="10" fill="#064e3b" />
<rect x="220" y="300" width="10" height="10" fill="#064e3b" />
<rect x="240" y="300" width="10" height="10" fill="#064e3b" />
<rect x="250" y="300" width="10" height="10" fill="#064e3b" />
<rect x="270" y="300" width="10" height="10" fill="#064e3b" />
<rect x="310" y="300" width="10" height="10" fill="#064e3b" />
<rect x="330" y="300" width="10" height="10" fill="#064e3b" />
<rect x="30" y="310" width="10" height="10" fill="#064e3b" />
<rect x="50" y="310" width="10" height="10" fill="#064e3b" />
<rect x="60" y="310" width="10" height="10" fill="#064e3b" />
<rect x="70" y="310" width="10" height="10" fill="#064e3b" />
<rect x="90" y="310" width="10" height="10" fill="#064e3b" />
<rect x="110" y="310" width="10" height="10" fill="#064e3b" />
<rect x="140" y="310" width="10" height="10" fill="#064e3b" />
<rect x="150" y="310" width="10" height="10" fill="#064e3b" />
<rect x="170" y="310" width="10" height="10" fill="#064e3b" />
<rect x="210" y="310" width="10" height="10" fill="#064e3b" />
<rect x="240" y="310" width="10" height="10" fill="#064e3b" />
<rect x="270" y="310" width="10" height="10" fill="#064e3b" />
<rect x="280" y="310" width="10" height="10" fill="#064e3b" />
<rect x="290" y="310" width="10" height="10" fill="#064e3b" />
<rect x="300" y="310" width="10" height="10" fill="#064e3b" />
<rect x="310" y="310" width="10" height="10" fill="#064e3b" />
<rect x="320" y="310" width="10" height="10" fill="#064e3b" />
<rect x="350" y="310" width="10" height="10" fill="#064e3b" />
<rect x="30" y="320" width="10" height="10" fill="#064e3b" />
<rect x="50" y="320" width="10" height="10" fill="#064e3b" />
<rect x="60" y="320" width="10" height="10" fill="#064e3b" />
<rect x="70" y="320" width="10" height="10" fill="#064e3b" />
<rect x="90" y="320" width="10" height="10" fill="#064e3b" />
<rect x="110" y="320" width="10" height="10" fill="#064e3b" />
<rect x="120" y="320" width="10" height="10" fill="#064e3b" />
<rect x="130" y="320" width="10" height="10" fill="#064e3b" />
<rect x="150" y="320" width="10" height="10" fill="#064e3b" />
<rect x="160" y="320" width="10" height="10" fill="#064e3b" />
<rect x="170" y="320" width="10" height="10" fill="#064e3b" />
<rect x="180" y="320" width="10" height="10" fill="#064e3b" />
<rect x="190" y="320" width="10" height="10" fill="#064e3b" />
<rect x="230" y="320" width="10" height="10" fill="#064e3b" />
<rect x="250" y="320" width="10" height="10" fill="#064e3b" />
<rect x="300" y="320" width="10" height="10" fill="#064e3b" />
<rect x="310" y="320" width="10" height="10" fill="#064e3b" />
<rect x="320" y="320" width="10" height="10" fill="#064e3b" />
<rect x="350" y="320" width="10" height="10" fill="#064e3b" />
<rect x="30" y="330" width="10" height="10" fill="#064e3b" />
<rect x="50" y="330" width="10" height="10" fill="#064e3b" />
<rect x="60" y="330" width="10" height="10" fill="#064e3b" />
<rect x="70" y="330" width="10" height="10" fill="#064e3b" />
<rect x="90" y="330" width="10" height="10" fill="#064e3b" />
<rect x="110" y="330" width="10" height="10" fill="#064e3b" />
<rect x="120" y="330" width="10" height="10" fill="#064e3b" />
<rect x="130" y="330" width="10" height="10" fill="#064e3b" />
<rect x="140" y="330" width="10" height="10" fill="#064e3b" />
<rect x="150" y="330" width="10" height="10" fill="#064e3b" />
<rect x="210" y="330" width="10" height="10" fill="#064e3b" />
<rect x="220" y="330" width="10" height="10" fill="#064e3b" />
<rect x="250" y="330" width="10" height="10" fill="#064e3b" />
<rect x="270" y="330" width="10" height="10" fill="#064e3b" />
<rect x="280" y="330" width="10" height="10" fill="#064e3b" />
<rect x="290" y="330" width="10" height="10" fill="#064e3b" />
<rect x="300" y="330" width="10" height="10" fill="#064e3b" />
<rect x="330" y="330" width="10" height="10" fill="#064e3b" />
<rect x="30" y="340" width="10" height="10" fill="#064e3b" />
<rect x="90" y="340" width="10" height="10" fill="#064e3b" />
<rect x="120" y="340" width="10" height="10" fill="#064e3b" />
<rect x="130" y="340" width="10" height="10" fill="#064e3b" />
<rect x="150" y="340" width="10" height="10" fill="#064e3b" />
<rect x="160" y="340" width="10" height="10" fill="#064e3b" />
<rect x="190" y="340" width="10" height="10" fill="#064e3b" />
<rect x="210" y="340" width="10" height="10" fill="#064e3b" />
<rect x="220" y="340" width="10" height="10" fill="#064e3b" />
<rect x="230" y="340" width="10" height="10" fill="#064e3b" />
<rect x="240" y="340" width="10" height="10" fill="#064e3b" />
<rect x="270" y="340" width="10" height="10" fill="#064e3b" />
<rect x="280" y="340" width="10" height="10" fill="#064e3b" />
<rect x="290" y="340" width="10" height="10" fill="#064e3b" />
<rect x="300" y="340" width="10" height="10" fill="#064e3b" />
<rect x="310" y="340" width="10" height="10" fill="#064e3b" />
<rect x="330" y="340" width="10" height="10" fill="#064e3b" />
<rect x="30" y="350" width="10" height="10" fill="#064e3b" />
<rect x="40" y="350" width="10" height="10" fill="#064e3b" />
<rect x="50" y="350" width="10" height="10" fill="#064e3b" />
<rect x="60" y="350" width="10" height="10" fill="#064e3b" />
<rect x="70" y="350" width="10" height="10" fill="#064e3b" />
<rect x="80" y="350" width="10" height="10" fill="#064e3b" />
<rect x="90" y="350" width="10" height="10" fill="#064e3b" />
<rect x="110" y="350" width="10" height="10" fill="#064e3b" />
<rect x="120" y="350" width="10" height="10" fill="#064e3b" />
<rect x="130" y="350" width="10" height="10" fill="#064e3b" />
<rect x="140" y="350" width="10" height="10" fill="#064e3b" />
<rect x="150" y="350" width="10" height="10" fill="#064e3b" />
<rect x="160" y="350" width="10" height="10" fill="#064e3b" />
<rect x="200" y="350" width="10" height="10" fill="#064e3b" />
<rect x="210" y="350" width="10" height="10" fill="#064e3b" />
<rect x="220" y="350" width="10" height="10" fill="#064e3b" />
<rect x="230" y="350" width="10" height="10" fill="#064e3b" />
<rect x="260" y="350" width="10" height="10" fill="#064e3b" />
<rect x="290" y="350" width="10" height="10" fill="#064e3b" />
<rect x="300" y="350" width="10" height="10" fill="#064e3b" />
<rect x="310" y="350" width="10" height="10" fill="#064e3b" />
<rect x="330" y="350" width="10" height="10" fill="#064e3b" />
<rect x="340" y="350" width="10" height="10" fill="#064e3b" />

</svg>